<mxfile host="app.diagrams.net" agent="Mozilla/5.0 (Windows NT 10.0; Win64; x64) AppleWebKit/537.36 (KHTML, like Gecko) Chrome/124.0.0.0 YaBrowser/24.6.0.0 Safari/537.36" version="24.7.6">
  <diagram name="Страница — 1" id="J5cPusHqsiXlYCjbjZv8">
    <mxGraphModel dx="1250" dy="988" grid="1" gridSize="10" guides="1" tooltips="1" connect="1" arrows="1" fold="1" page="1" pageScale="1" pageWidth="827" pageHeight="1169" math="0" shadow="0">
      <root>
        <mxCell id="0" />
        <mxCell id="1" parent="0" />
        <mxCell id="b2SJx9ni3nPavMKtnlh6-31" style="edgeStyle=orthogonalEdgeStyle;rounded=0;orthogonalLoop=1;jettySize=auto;html=1;" edge="1" parent="1" source="b2SJx9ni3nPavMKtnlh6-1" target="b2SJx9ni3nPavMKtnlh6-3">
          <mxGeometry relative="1" as="geometry" />
        </mxCell>
        <mxCell id="b2SJx9ni3nPavMKtnlh6-1" value="Начало" style="rounded=1;whiteSpace=wrap;html=1;" vertex="1" parent="1">
          <mxGeometry x="258" y="80" width="120" height="60" as="geometry" />
        </mxCell>
        <mxCell id="b2SJx9ni3nPavMKtnlh6-32" style="edgeStyle=orthogonalEdgeStyle;rounded=0;orthogonalLoop=1;jettySize=auto;html=1;" edge="1" parent="1" source="b2SJx9ni3nPavMKtnlh6-3" target="b2SJx9ni3nPavMKtnlh6-7">
          <mxGeometry relative="1" as="geometry" />
        </mxCell>
        <mxCell id="b2SJx9ni3nPavMKtnlh6-3" value="&lt;font face=&quot;Helvetica&quot;&gt;&lt;font style=&quot;font-size: 12px;&quot;&gt;string[] words&amp;nbsp; =&amp;nbsp;&lt;font style=&quot;font-size: 12px;&quot;&gt;&lt;span style=&quot;white-space: pre;&quot;&gt;new&lt;/span&gt;&lt;span style=&quot;white-space: pre;&quot;&gt; &lt;/span&gt;&lt;span style=&quot;white-space: pre;&quot;&gt;string&lt;/span&gt;&lt;span style=&quot;white-space: pre;&quot;&gt;[] &lt;/span&gt;&lt;/font&gt;&lt;/font&gt;&lt;span style=&quot;background-color: initial; white-space: pre;&quot;&gt;{  &lt;/span&gt;&lt;span style=&quot;background-color: initial; white-space: pre;&quot;&gt;&quot;Дерево&quot;&lt;/span&gt;&lt;span style=&quot;background-color: initial; white-space: pre;&quot;&gt;, &lt;/span&gt;&lt;span style=&quot;background-color: initial; white-space: pre;&quot;&gt;&quot;Кот&quot;&lt;/span&gt;&lt;span style=&quot;background-color: initial; white-space: pre;&quot;&gt; , &lt;/span&gt;&lt;span style=&quot;background-color: initial; white-space: pre;&quot;&gt;&quot;Пепега&quot;&lt;/span&gt;&lt;span style=&quot;background-color: initial; white-space: pre;&quot;&gt;, &lt;/span&gt;&lt;span style=&quot;background-color: initial; white-space: pre;&quot;&gt;&quot;Мяу&quot;&lt;/span&gt;&lt;span style=&quot;background-color: initial; white-space: pre;&quot;&gt;, &lt;/span&gt;&lt;/font&gt;&lt;div&gt;&lt;div style=&quot;line-height: 120%; white-space: pre;&quot;&gt;&lt;div style=&quot;line-height: 120%;&quot;&gt;&lt;font face=&quot;Helvetica&quot;&gt;&lt;font style=&quot;font-size: 12px;&quot;&gt;&amp;nbsp; &amp;nbsp; &amp;nbsp; &amp;nbsp; &amp;nbsp; &amp;nbsp; &amp;nbsp; &amp;nbsp; &amp;nbsp; &amp;nbsp; &amp;nbsp; &amp;nbsp; &amp;nbsp; &amp;nbsp; &amp;nbsp;            &amp;nbsp;             &lt;/font&gt;&lt;font style=&quot;font-size: 12px;&quot;&gt;&quot;Эх&quot;, &quot;Сон&quot;, &quot;Четыре&quot;, &quot;Три&quot;,&lt;/font&gt;&lt;/font&gt;&lt;/div&gt;&lt;div style=&quot;line-height: 120%;&quot;&gt;&lt;font face=&quot;Helvetica&quot;&gt;&lt;font style=&quot;font-size: 12px;&quot;&gt;&amp;nbsp; &amp;nbsp; &amp;nbsp; &amp;nbsp; &amp;nbsp; &amp;nbsp; &amp;nbsp; &amp;nbsp; &amp;nbsp; &amp;nbsp; &amp;nbsp; &amp;nbsp; &amp;nbsp; &amp;nbsp; &amp;nbsp; &amp;nbsp;                        &lt;/font&gt;&lt;font style=&quot;font-size: 12px;&quot;&gt;&quot;Мир&quot;, &quot;Труд&quot;, &quot;Май&quot;, &quot;:3&quot;    };&lt;/font&gt;&lt;/font&gt;&lt;/div&gt;&lt;div style=&quot;line-height: 120%;&quot;&gt;int lthan3s = 0;&lt;/div&gt;&lt;/div&gt;&lt;/div&gt;" style="rounded=0;whiteSpace=wrap;html=1;align=left;" vertex="1" parent="1">
          <mxGeometry x="141" y="190" width="354" height="70" as="geometry" />
        </mxCell>
        <mxCell id="b2SJx9ni3nPavMKtnlh6-11" style="edgeStyle=orthogonalEdgeStyle;rounded=0;orthogonalLoop=1;jettySize=auto;html=1;entryX=0.5;entryY=0;entryDx=0;entryDy=0;" edge="1" parent="1" source="b2SJx9ni3nPavMKtnlh6-7" target="b2SJx9ni3nPavMKtnlh6-8">
          <mxGeometry relative="1" as="geometry" />
        </mxCell>
        <mxCell id="b2SJx9ni3nPavMKtnlh6-20" style="edgeStyle=orthogonalEdgeStyle;rounded=0;orthogonalLoop=1;jettySize=auto;html=1;entryX=0;entryY=0.5;entryDx=0;entryDy=0;" edge="1" parent="1" source="b2SJx9ni3nPavMKtnlh6-7" target="b2SJx9ni3nPavMKtnlh6-18">
          <mxGeometry relative="1" as="geometry" />
        </mxCell>
        <mxCell id="b2SJx9ni3nPavMKtnlh6-7" value="foreach(string word in words)" style="shape=hexagon;perimeter=hexagonPerimeter2;whiteSpace=wrap;html=1;fixedSize=1;" vertex="1" parent="1">
          <mxGeometry x="230" y="320" width="176" height="80" as="geometry" />
        </mxCell>
        <mxCell id="b2SJx9ni3nPavMKtnlh6-13" style="edgeStyle=orthogonalEdgeStyle;rounded=0;orthogonalLoop=1;jettySize=auto;html=1;entryX=0.5;entryY=0;entryDx=0;entryDy=0;" edge="1" parent="1" source="b2SJx9ni3nPavMKtnlh6-8" target="b2SJx9ni3nPavMKtnlh6-12">
          <mxGeometry relative="1" as="geometry" />
        </mxCell>
        <mxCell id="b2SJx9ni3nPavMKtnlh6-14" value="ДА" style="edgeLabel;html=1;align=center;verticalAlign=middle;resizable=0;points=[];" vertex="1" connectable="0" parent="b2SJx9ni3nPavMKtnlh6-13">
          <mxGeometry x="-0.0671" y="1" relative="1" as="geometry">
            <mxPoint x="-1" as="offset" />
          </mxGeometry>
        </mxCell>
        <mxCell id="b2SJx9ni3nPavMKtnlh6-16" style="edgeStyle=orthogonalEdgeStyle;rounded=0;orthogonalLoop=1;jettySize=auto;html=1;" edge="1" parent="1" source="b2SJx9ni3nPavMKtnlh6-8">
          <mxGeometry relative="1" as="geometry">
            <mxPoint x="145" y="504.4999999999999" as="targetPoint" />
          </mxGeometry>
        </mxCell>
        <mxCell id="b2SJx9ni3nPavMKtnlh6-17" value="НЕТ" style="edgeLabel;html=1;align=center;verticalAlign=middle;resizable=0;points=[];" vertex="1" connectable="0" parent="b2SJx9ni3nPavMKtnlh6-16">
          <mxGeometry x="-0.3052" y="1" relative="1" as="geometry">
            <mxPoint as="offset" />
          </mxGeometry>
        </mxCell>
        <mxCell id="b2SJx9ni3nPavMKtnlh6-8" value="word.Length &amp;lt; 4" style="rhombus;whiteSpace=wrap;html=1;" vertex="1" parent="1">
          <mxGeometry x="246" y="464.5" width="144" height="80" as="geometry" />
        </mxCell>
        <mxCell id="b2SJx9ni3nPavMKtnlh6-15" style="edgeStyle=orthogonalEdgeStyle;rounded=0;orthogonalLoop=1;jettySize=auto;html=1;entryX=0;entryY=0.5;entryDx=0;entryDy=0;" edge="1" parent="1" source="b2SJx9ni3nPavMKtnlh6-12" target="b2SJx9ni3nPavMKtnlh6-7">
          <mxGeometry relative="1" as="geometry">
            <Array as="points">
              <mxPoint x="145" y="605" />
              <mxPoint x="145" y="360" />
            </Array>
          </mxGeometry>
        </mxCell>
        <mxCell id="b2SJx9ni3nPavMKtnlh6-12" value="lthan3s++;" style="rounded=0;whiteSpace=wrap;html=1;" vertex="1" parent="1">
          <mxGeometry x="258" y="590" width="120" height="30" as="geometry" />
        </mxCell>
        <mxCell id="b2SJx9ni3nPavMKtnlh6-22" style="edgeStyle=orthogonalEdgeStyle;rounded=0;orthogonalLoop=1;jettySize=auto;html=1;" edge="1" parent="1" source="b2SJx9ni3nPavMKtnlh6-18" target="b2SJx9ni3nPavMKtnlh6-21">
          <mxGeometry relative="1" as="geometry" />
        </mxCell>
        <mxCell id="b2SJx9ni3nPavMKtnlh6-18" value="string[] result = new string[lthan3s];&lt;div&gt;int forward = 0;&lt;/div&gt;" style="rounded=0;whiteSpace=wrap;html=1;align=left;" vertex="1" parent="1">
          <mxGeometry x="475" y="340" width="209" height="40" as="geometry" />
        </mxCell>
        <mxCell id="b2SJx9ni3nPavMKtnlh6-26" style="edgeStyle=orthogonalEdgeStyle;rounded=0;orthogonalLoop=1;jettySize=auto;html=1;" edge="1" parent="1" source="b2SJx9ni3nPavMKtnlh6-21" target="b2SJx9ni3nPavMKtnlh6-23">
          <mxGeometry relative="1" as="geometry" />
        </mxCell>
        <mxCell id="b2SJx9ni3nPavMKtnlh6-34" style="edgeStyle=orthogonalEdgeStyle;rounded=0;orthogonalLoop=1;jettySize=auto;html=1;entryX=0.5;entryY=0;entryDx=0;entryDy=0;" edge="1" parent="1" source="b2SJx9ni3nPavMKtnlh6-21" target="b2SJx9ni3nPavMKtnlh6-33">
          <mxGeometry relative="1" as="geometry">
            <Array as="points">
              <mxPoint x="720" y="470" />
              <mxPoint x="720" y="750" />
              <mxPoint x="318" y="750" />
            </Array>
          </mxGeometry>
        </mxCell>
        <mxCell id="b2SJx9ni3nPavMKtnlh6-21" value="foreach(string word in words)" style="shape=hexagon;perimeter=hexagonPerimeter2;whiteSpace=wrap;html=1;fixedSize=1;" vertex="1" parent="1">
          <mxGeometry x="492.75" y="430" width="173.5" height="80" as="geometry" />
        </mxCell>
        <mxCell id="b2SJx9ni3nPavMKtnlh6-27" style="edgeStyle=orthogonalEdgeStyle;rounded=0;orthogonalLoop=1;jettySize=auto;html=1;" edge="1" parent="1" source="b2SJx9ni3nPavMKtnlh6-23" target="b2SJx9ni3nPavMKtnlh6-24">
          <mxGeometry relative="1" as="geometry" />
        </mxCell>
        <mxCell id="b2SJx9ni3nPavMKtnlh6-28" value="ДА" style="edgeLabel;html=1;align=center;verticalAlign=middle;resizable=0;points=[];" vertex="1" connectable="0" parent="b2SJx9ni3nPavMKtnlh6-27">
          <mxGeometry x="-0.5" y="-1" relative="1" as="geometry">
            <mxPoint x="1" y="10" as="offset" />
          </mxGeometry>
        </mxCell>
        <mxCell id="b2SJx9ni3nPavMKtnlh6-29" style="edgeStyle=orthogonalEdgeStyle;rounded=0;orthogonalLoop=1;jettySize=auto;html=1;" edge="1" parent="1" source="b2SJx9ni3nPavMKtnlh6-23">
          <mxGeometry relative="1" as="geometry">
            <mxPoint x="440" y="600" as="targetPoint" />
          </mxGeometry>
        </mxCell>
        <mxCell id="b2SJx9ni3nPavMKtnlh6-30" value="НЕТ" style="edgeLabel;html=1;align=center;verticalAlign=middle;resizable=0;points=[];" vertex="1" connectable="0" parent="b2SJx9ni3nPavMKtnlh6-29">
          <mxGeometry x="-0.2265" y="-1" relative="1" as="geometry">
            <mxPoint as="offset" />
          </mxGeometry>
        </mxCell>
        <mxCell id="b2SJx9ni3nPavMKtnlh6-23" value="word.Length &amp;lt; 4" style="rhombus;whiteSpace=wrap;html=1;" vertex="1" parent="1">
          <mxGeometry x="507.5" y="560" width="144" height="80" as="geometry" />
        </mxCell>
        <mxCell id="b2SJx9ni3nPavMKtnlh6-25" style="edgeStyle=orthogonalEdgeStyle;rounded=0;orthogonalLoop=1;jettySize=auto;html=1;entryX=0;entryY=0.5;entryDx=0;entryDy=0;" edge="1" parent="1" source="b2SJx9ni3nPavMKtnlh6-24" target="b2SJx9ni3nPavMKtnlh6-21">
          <mxGeometry relative="1" as="geometry">
            <Array as="points">
              <mxPoint x="440" y="695" />
              <mxPoint x="440" y="470" />
            </Array>
          </mxGeometry>
        </mxCell>
        <mxCell id="b2SJx9ni3nPavMKtnlh6-24" value="result[forward++] = word;" style="rounded=0;whiteSpace=wrap;html=1;align=left;" vertex="1" parent="1">
          <mxGeometry x="502" y="680" width="155" height="30" as="geometry" />
        </mxCell>
        <mxCell id="b2SJx9ni3nPavMKtnlh6-36" style="edgeStyle=orthogonalEdgeStyle;rounded=0;orthogonalLoop=1;jettySize=auto;html=1;" edge="1" parent="1" source="b2SJx9ni3nPavMKtnlh6-33" target="b2SJx9ni3nPavMKtnlh6-35">
          <mxGeometry relative="1" as="geometry" />
        </mxCell>
        <mxCell id="b2SJx9ni3nPavMKtnlh6-39" style="edgeStyle=orthogonalEdgeStyle;rounded=0;orthogonalLoop=1;jettySize=auto;html=1;" edge="1" parent="1" source="b2SJx9ni3nPavMKtnlh6-33" target="b2SJx9ni3nPavMKtnlh6-38">
          <mxGeometry relative="1" as="geometry" />
        </mxCell>
        <mxCell id="b2SJx9ni3nPavMKtnlh6-33" value="foreach(string word in words)" style="shape=hexagon;perimeter=hexagonPerimeter2;whiteSpace=wrap;html=1;fixedSize=1;" vertex="1" parent="1">
          <mxGeometry x="230" y="810" width="176" height="80" as="geometry" />
        </mxCell>
        <mxCell id="b2SJx9ni3nPavMKtnlh6-37" style="edgeStyle=orthogonalEdgeStyle;rounded=0;orthogonalLoop=1;jettySize=auto;html=1;entryX=0;entryY=0.5;entryDx=0;entryDy=0;" edge="1" parent="1" source="b2SJx9ni3nPavMKtnlh6-35" target="b2SJx9ni3nPavMKtnlh6-33">
          <mxGeometry relative="1" as="geometry">
            <Array as="points">
              <mxPoint x="180" y="970" />
              <mxPoint x="180" y="850" />
            </Array>
          </mxGeometry>
        </mxCell>
        <mxCell id="b2SJx9ni3nPavMKtnlh6-35" value="Console.WriteLine(word)" style="shape=document;whiteSpace=wrap;html=1;boundedLbl=1;" vertex="1" parent="1">
          <mxGeometry x="241.5" y="950" width="153" height="60" as="geometry" />
        </mxCell>
        <mxCell id="b2SJx9ni3nPavMKtnlh6-38" value="Конец" style="rounded=1;whiteSpace=wrap;html=1;" vertex="1" parent="1">
          <mxGeometry x="475" y="820" width="120" height="60" as="geometry" />
        </mxCell>
      </root>
    </mxGraphModel>
  </diagram>
</mxfile>
